<svg xmlns="http://www.w3.org/2000/svg" viewBox="0 0 1200 1200"><defs><style>.cls-1{fill:#9bba71}.cls-2{fill:#e5c161}.cls-3{fill:#393430}</style></defs><g id="Layer_2" data-name="Layer 2"><path d="M426 1198.88a2.21 2.21 0 0 1-.09-1.94c1.79-4 3.5-7.59 5-11.09l1.21-2.81c.4-.9.79-1.81 1.16-2.72.71-1.85 1.45-3.55 2.09-5.36 2.64-7.08 4.7-13.61 6.52-19.84.88-3.14 1.77-6.16 2.54-9.19s1.56-6 2.33-9c1.48-6 2.9-12 4.33-18.15l4.42-19.07c1.54-6.57 3.15-13.36 5-20.43q1.38-5.3 3-10.82c1.07-3.68 2.2-7.44 3.46-11.3s2.63-7.81 4.15-11.88a71.81 71.81 0 0 1 2.85-7.5 2.18 2.18 0 0 1 2.15-1.24l2 .19a2.18 2.18 0 0 1 1.9 1.62c1.69 6.54 3 9.54 4.05 16.8q1.6 11.71 2.11 23.57c.07 2 .13 4 .16 5.93s0 4-.07 5.94q-.15 5.94-.65 11.87a171.25 171.25 0 0 1-3.6 23.56 140.22 140.22 0 0 1-7.49 22.72 108.52 108.52 0 0 1-11.75 20.91 105.5 105.5 0 0 1-16.09 17.74 99.46 99.46 0 0 1-9.49 7.28 88.91 88.91 0 0 1-8.41 5.07 2.16 2.16 0 0 1-2.89-.87Z" class="cls-1"/><path d="M451.74 1178.38a2 2 0 0 1-.8-1.59c0-2 .15-4 .32-6 .3-2.23.63-4.49 1.11-6.67s1.09-4.3 1.71-6.44 1.41-4.19 2.24-6.23a82.08 82.08 0 0 1 6-11.73c.58-.93 1.16-1.88 1.77-2.8s1.27-1.8 1.91-2.71l2-2.65c.68-.87 1.41-1.71 2.12-2.56 1.34-1.65 2.84-3.15 4.31-4.7.81-.85 1.66-1.66 2.53-2.45s1.73-1.63 2.63-2.39c1.75-1.43 3.46-2.93 5.34-4.24.93-.67 1.85-1.35 2.79-2s1.94-1.25 2.92-1.87a87.53 87.53 0 0 1 26.36-11.08c2.45-.49 4.86-1 7.39-1.38s5.07-.59 7.64-.74a76.73 76.73 0 0 1 15.91 1c1.35.25 2.7.5 4 .78s2.7.71 4 1.09a62.74 62.74 0 0 1 8 3 59.6 59.6 0 0 1 14.67 9.29 52.2 52.2 0 0 1 6.1 6.28 50.69 50.69 0 0 1 10.08 21.1 48.26 48.26 0 0 1 .94 14.26 42.91 42.91 0 0 1-2.81 12.68 2 2 0 0 1-1.36 1.22l-.27.08a2 2 0 0 1-2.43-1.28 89.75 89.75 0 0 0-3.35-8.38c-.72-1.67-1.61-3.24-2.43-4.84s-1.8-3.11-2.84-4.57a46 46 0 0 0-14.9-14.64 47.63 47.63 0 0 0-19.91-5.87 67.06 67.06 0 0 0-10.6.15 84.31 84.31 0 0 0-10.53 1.82 97.61 97.61 0 0 0-20.27 7.29c-3.27 1.54-6.42 3.34-9.55 5.18s-6.14 3.87-9.1 6a146.67 146.67 0 0 0-16.85 14c-1.34 1.24-2.63 2.55-4 3.82s-2.54 2.65-3.81 4l-3.69 4.1-2.37 2.74a2 2 0 0 1-2.74.29ZM439.89 1182.07a2.2 2.2 0 0 1-3.89-1.25c-.14-2.28-.27-4.49-.44-6.67-.32-3.77-.67-7.4-1.14-10.93a159.47 159.47 0 0 0-3.94-20.09 151.23 151.23 0 0 0-14.48-35.46 153.49 153.49 0 0 0-22.74-30.67c-2.24-2.32-4.6-4.6-7-6.76a88.54 88.54 0 0 0-7.79-6.23c-2.8-2-5.83-3.9-9.05-5.8-1.92-1.12-3.92-2.2-6-3.31a2.2 2.2 0 0 1 .45-4 48.81 48.81 0 0 1 7.1-1.55 54.14 54.14 0 0 1 12.55-.38 58 58 0 0 1 12.68 2.54c2.08.65 4.08 1.41 6.06 2.25 1 .42 1.95.87 2.94 1.32s1.92 1 2.86 1.45a84.86 84.86 0 0 1 20.42 15.3 92.87 92.87 0 0 1 15.3 20.38 89.74 89.74 0 0 1 11.54 49.08 76.06 76.06 0 0 1-5.54 24.36 66.64 66.64 0 0 1-5.71 10.88 58.85 58.85 0 0 1-4.18 5.54Z" class="cls-1"/><path d="M463.56 969a4.9 4.9 0 0 1-4.57-3.85c-4.2-19.37-7.47-39.09-10.25-58.94-1.45-10.56-2.82-21.17-3.92-31.82q-.85-8-1.64-16c-.52-5.34-.93-10.69-1.36-16a1187.09 1187.09 0 0 1-3.28-129.58c.52-21.72 1.9-43.38 3.65-65l.69-8.12c.22-2.72.54-5.4.8-8.1.54-5.41 1.17-10.79 1.77-16.19 1.26-10.77 2.61-21.54 4.15-32.28q4.8-32.13 11.43-63.8c4.59-21 9.77-41.81 15.67-62.25 6.06-20.34 12.73-40.36 20.15-59.85s15.81-38.22 24.72-56.43c2.27-4.52 4.52-9 6.91-13.43l3.57-6.6 3.64-6.49c4.89-8.61 9.89-17.06 15.06-25.22a563.17 563.17 0 0 1 32.76-46.06c2.82-3.65 5.74-7.16 8.67-10.61s5.88-6.98 8.82-10.38q9-10 18.16-19.51c6.19-6.2 12.48-12.2 18.77-18l4.68-4.24 4.31-3.85 8.58-6.94c6.26-5.21 12.78-10 19.26-14.86 6.59-4.6 13.24-9.3 20.13-13.6 1.75-1.07 3.45-2.2 5.24-3.22s3.59-2 5.46-3 3.74-2 5.64-2.84c.95-.42 1.89-.83 2.8-1.18l2.7-1.07c6.29-2.25 9.59-3.31 16.24-5.44 1.48-.48 6.12-1.25 6.8.15a3.13 3.13 0 0 1-.55 3.52c-5.27 5.56-10.6 11.07-16.08 16.29-3 2.85-5.9 5.63-8.73 8.66s-5.61 6.18-8.4 9.36q-16.66 19.23-33.25 38.8l-4.14 4.88-2 2.34c-.71.84-1.91 2.18-2.67 3l-8.27 8.75c-5.68 6-11.35 12.23-16.88 18.64q-16.65 19.1-32.09 40.25a599.13 599.13 0 0 0-55.55 92.74c-8.1 16.82-15.58 34.29-22.49 52.24s-13.25 36.38-19 55.23c-2.91 9.4-5.58 19-8.21 28.54s-5 19.3-7.34 29.09q-7 29.29-12.3 59.42c-3.61 20-6.64 40.31-9.32 60.7s-4.88 40.93-6.66 61.57c-3.59 41.28-5.37 82.94-5.83 124.68-.41 39.68.41 80.49 8.51 120a4.87 4.87 0 0 1-5 5.88Z" class="cls-2"/><path d="M392.63 711.05c60.17 67.24 64 165.85 63.59 197.53a9.59 9.59 0 0 1-10.53 9.42c-31.53-3.08-129.11-17.81-189.28-85-60.84-68-45.24-186.06-38.62-222.39a9.61 9.61 0 0 1 12.78-7.31c27.59 10.16 103.73 42.58 162.06 107.75Z" class="cls-2"/><path d="M526 730.67c-77 47.06-109.06 140.39-117.76 170.85a9.6 9.6 0 0 0 7.37 12.07c31.08 6.13 128.77 20.11 205.75-27 77.83-47.58 96.89-165.15 101-201.86a9.61 9.61 0 0 0-10.13-10.68C682.91 675.92 600.67 685 526 730.67ZM421.34 469.28c49.32 75.56 38.24 173.62 33 204.87a9.6 9.6 0 0 1-11.84 7.73c-30.7-7.8-124.94-37.12-174.26-112.67-49.86-76.39-16.6-190.76-4.57-225.68a9.61 9.61 0 0 1 13.74-5.29c25.76 14.25 96.12 57.76 143.93 131.04Z" class="cls-2"/><path d="M560.4 501.16c-78.38 44.7-113.29 137-122.92 167.19a9.59 9.59 0 0 0 7 12.28c30.88 7.08 128.1 24 206.48-20.67 79.25-45.19 101.88-162.12 107.12-198.69a9.61 9.61 0 0 0-9.81-11c-29.4.95-111.89 7.56-187.87 50.89ZM549.63 275c7.13 76.92-39.57 146.85-57 170a9.61 9.61 0 0 1-14.18 1.31c-21.42-19.57-80.16-79.73-87.29-156.65-7.21-77.9 62.63-151.37 87.16-174.58a9.62 9.62 0 0 1 14.69 1.8c14.56 22.59 49.74 83.77 56.62 158.12Z" class="cls-2"/><path d="M605.13 296c-65.29 41.28-92.21 120.94-99.92 148.91a9.6 9.6 0 0 0 7.61 12c28.57 5 112.08 14.88 177.38-26.4 66.12-41.81 81.72-142 85.15-175.57A9.62 9.62 0 0 0 765 244.41c-26.83 2.22-96.77 11.67-159.87 51.59Z" class="cls-2"/><path d="M515.78 1031.83A515.91 515.91 0 0 1 315 40.82a515.9 515.9 0 0 1 401.55 950.47 512.65 512.65 0 0 1-200.77 40.54Zm0-978.9c-255.37 0-463.13 207.76-463.13 463.13s207.76 463.12 463.13 463.12S978.9 771.42 978.9 516.06 771.14 52.93 515.78 52.93Z" class="cls-3"/><rect width="110.29" height="414.05" x="980.7" y="828.71" class="cls-3" rx="51.25" transform="rotate(-45 1035.838 1035.742)"/></g></svg>